<svg width="38" height="38" viewBox="0 0 38 38" fill="none" xmlns="http://www.w3.org/2000/svg">
<path d="M22.3578 2.00017C25.8336 2.36659 29.0803 3.90897 31.5609 6.37224C34.0416 8.83552 35.6076 12.0721 36 15.5468M22.3578 8.82466C24.0349 9.15554 25.574 9.98316 26.7751 11.2001C27.9762 12.4171 28.784 13.9671 29.0936 15.6492M35.9147 27.4555V32.5739C35.9167 33.0491 35.8194 33.5194 35.6291 33.9547C35.4389 34.3901 35.1598 34.7809 34.8099 35.1021C34.4599 35.4234 34.0467 35.6679 33.5968 35.8202C33.1469 35.9724 32.6702 36.0289 32.1972 35.9862C26.9498 35.4157 21.9093 33.6217 17.4807 30.7484C13.3605 28.1289 9.86721 24.6339 7.24904 20.5116C4.36709 16.0607 2.57359 10.9931 2.01384 5.71951C1.97123 5.24772 2.02727 4.77221 2.1784 4.32327C2.32953 3.87432 2.57244 3.46178 2.89166 3.11191C3.21088 2.76204 3.59942 2.4825 4.03253 2.2911C4.46565 2.09969 4.93386 2.00061 5.40734 2.00017H10.5232C11.3508 1.99202 12.1531 2.28522 12.7806 2.82513C13.408 3.36504 13.8179 4.11481 13.9337 4.9347C14.1497 6.57269 14.5501 8.18099 15.1274 9.72891C15.3569 10.3396 15.4065 11.0032 15.2705 11.6413C15.1345 12.2793 14.8185 12.865 14.36 13.3288L12.1943 15.4956C14.6219 19.767 18.1568 23.3036 22.426 25.7323L24.5917 23.5656C25.0553 23.1069 25.6407 22.7907 26.2784 22.6547C26.9161 22.5186 27.5795 22.5683 28.1898 22.7978C29.737 23.3754 31.3445 23.7761 32.9817 23.9921C33.81 24.109 34.5665 24.5265 35.1073 25.1651C35.6481 25.8036 35.9355 26.6188 35.9147 27.4555Z" stroke="#007EFF" stroke-width="3" stroke-linecap="round" stroke-linejoin="round"/>
</svg>
