<svg width="134" height="100" viewBox="0 0 134 100" fill="none" xmlns="http://www.w3.org/2000/svg">
<path opacity="0.5" d="M3.00923 73.0718L2.97035 73.0806C2.86896 72.2845 2.78912 71.4858 2.73094 70.6853L2.72956 70.6661L2.7278 70.647C2.47489 67.8978 2.36336 64.0499 2.60772 59.3917C2.89705 54.7627 3.60893 49.3732 5.15889 43.7177C5.97806 40.8919 6.97186 38.0016 8.1936 35.1884C8.33753 34.8887 8.47954 34.5914 8.62041 34.2964C9.88022 31.6587 11.049 29.2116 12.6796 26.9657L12.7319 26.8936L12.7776 26.8173C14.3508 24.1871 16.3968 21.8401 18.5755 19.501L18.6271 19.4455L18.6745 19.3863C19.5486 18.2923 20.6025 17.34 21.7747 16.382C22.1611 16.0662 22.5815 15.7339 23.0142 15.3919C23.8077 14.7647 24.6423 14.1049 25.3835 13.4553C26.4146 12.6072 27.5364 11.8994 28.7266 11.2086C29.1084 10.987 29.5129 10.7587 29.9261 10.5255C30.7493 10.0609 31.6069 9.57696 32.3877 9.08782L32.409 9.07445L32.43 9.06055C33.3968 8.42046 34.4284 7.95052 35.5327 7.51292C35.8796 7.37548 36.2595 7.23216 36.6526 7.08384C37.4003 6.80172 38.1959 6.50158 38.9028 6.18954C39.4998 5.96081 40.0475 5.74135 40.5579 5.53683C42.0318 4.94623 43.1947 4.48024 44.3355 4.27586L44.3997 4.26436L44.463 4.24871C45.4827 3.99653 46.385 3.77953 47.2188 3.57904C47.8493 3.4274 48.4406 3.28521 49.0137 3.14437C49.0165 3.14367 49.0194 3.14297 49.0223 3.14227L51.0252 2.67022L53.2804 11.9087L51.7384 12.5402L51.7325 12.5426L48.2334 13.9625C47.3439 14.2551 46.5312 14.6817 45.8052 15.1002C45.4674 15.2949 45.1278 15.5002 44.8031 15.6964L44.6956 15.7614C44.3314 15.9814 43.9804 16.1921 43.6226 16.3948L43.5639 16.4281L43.5076 16.4652C43.0702 16.7535 42.635 16.9901 42.1166 17.2719C41.8486 17.4176 41.5583 17.5754 41.2341 17.7586C40.3716 18.246 39.387 18.8566 38.4989 19.7168C38.026 20.1482 37.524 20.535 36.9436 20.9823C36.7395 21.1396 36.5256 21.3044 36.3 21.4812C35.4742 22.1282 34.5501 22.8945 33.7424 23.8567L33.7191 23.8845L33.6968 23.9131C33.2914 24.4332 32.8576 24.8869 32.3489 25.419C32.1465 25.6307 31.9323 25.8547 31.7033 26.1003C30.9765 26.8795 30.169 27.8126 29.5517 28.9746C29.5284 29.0096 29.505 29.0448 29.4815 29.0801C28.3814 30.7318 27.1493 32.5818 26.3216 34.7275C25.4895 36.294 24.9753 37.9905 24.5331 39.4497L24.5274 39.4683L23.6196 42.4637L26.7192 42.029C26.8161 42.0155 26.912 42.0019 27.0071 41.9885C28.3433 41.8003 29.5191 41.6346 30.7316 41.6409L30.7322 41.6409C35.9737 41.6663 41.1009 43.1753 45.5205 45.9933C49.9401 48.8112 53.4715 52.823 55.7062 57.5643C57.9408 62.3056 58.7872 67.5828 58.1476 72.7852C57.5081 77.9875 55.4085 82.9025 52.092 86.9614C48.7755 91.0202 44.3775 94.0571 39.4069 95.7206C34.4363 97.3841 29.0963 97.6063 24.0048 96.3613C18.9132 95.1164 14.2782 92.4553 10.636 88.6859C6.99386 84.9165 4.49338 80.1929 3.42393 75.0616L3.00923 73.0718ZM123.758 3.06085L126.013 12.2973C125.582 12.4721 125.07 12.6794 124.483 12.9155L124.478 12.9176L120.973 14.34C120.084 14.6326 119.271 15.0592 118.545 15.4776C118.207 15.6723 117.868 15.8775 117.543 16.0737L117.435 16.1388C117.071 16.3588 116.72 16.5696 116.362 16.7723L116.304 16.8055L116.247 16.8427C115.81 17.131 115.375 17.3676 114.856 17.6494C114.588 17.795 114.298 17.9528 113.974 18.136C113.111 18.6235 112.127 19.2341 111.239 20.0942C110.766 20.5257 110.264 20.9125 109.683 21.3598C109.479 21.5171 109.265 21.6818 109.04 21.8587C108.214 22.5056 107.29 23.2719 106.482 24.2342L106.459 24.2619L106.436 24.2905C106.031 24.8106 105.597 25.2644 105.088 25.7965C104.886 26.0081 104.672 26.2322 104.443 26.4777C103.716 27.257 102.909 28.19 102.291 29.3521C102.268 29.3871 102.245 29.4222 102.221 29.4575C101.121 31.1092 99.8889 32.9593 99.0612 35.105C98.2291 36.6714 97.715 38.3679 97.2728 39.8271L97.2671 39.8458L96.3593 42.8412L99.4589 42.4065C99.5557 42.3929 99.6516 42.3794 99.7468 42.366C101.083 42.1777 102.259 42.012 103.471 42.0183L103.472 42.0183C108.713 42.0438 113.841 43.5528 118.26 46.3707C122.68 49.1887 126.211 53.2004 128.446 57.9417C130.68 62.6831 131.527 67.9602 130.887 73.1626C130.248 78.365 128.148 83.2799 124.832 87.3388C121.515 91.3977 117.117 94.4346 112.147 96.0981C107.176 97.7616 101.836 97.9837 96.7444 96.7388C91.6529 95.4938 87.0179 92.8327 83.3757 89.0633C79.7335 85.2939 77.233 80.5703 76.1636 75.439L75.7489 73.4493L75.7098 73.4581C75.6076 72.6628 75.5254 71.8651 75.4631 71.0656L75.4621 71.0516L75.4608 71.0377C75.2079 68.2884 75.0963 64.4405 75.3407 59.7824C75.63 55.1533 76.3419 49.7639 77.8919 44.1084C78.711 41.2825 79.7048 38.3922 80.9266 35.579C81.0705 35.2793 81.2125 34.9821 81.3533 34.6872C82.6132 32.0494 83.7819 29.6022 85.4126 27.3563L85.4648 27.2843L85.5105 27.2079C87.0837 24.5777 89.1298 22.2307 91.3084 19.8916L91.3601 19.8362L91.4074 19.777C92.2816 18.6829 93.3354 17.7306 94.5077 16.7726C94.8941 16.4569 95.3145 16.1245 95.7472 15.7825C96.5407 15.1553 97.3753 14.4955 98.1165 13.8458C99.1476 12.9978 100.269 12.29 101.46 11.5992C101.841 11.3776 102.246 11.1493 102.659 10.9161C103.482 10.4516 104.34 9.96762 105.121 9.47847L105.142 9.4651L105.163 9.4512C106.13 8.8111 107.161 8.34116 108.266 7.90356C108.613 7.76612 108.992 7.62279 109.386 7.47448C110.133 7.19236 110.929 6.89222 111.636 6.58018C112.233 6.35147 112.78 6.132 113.291 5.92748C114.765 5.33687 115.928 4.87088 117.069 4.6665L117.133 4.655L117.196 4.63934C118.216 4.38715 119.118 4.17012 119.952 3.96961C120.582 3.81805 121.173 3.67593 121.746 3.53517C121.749 3.53441 121.752 3.53365 121.755 3.5329L123.758 3.06085Z" stroke="white" stroke-width="4"/>
</svg>
